<svg id="Layer_1" data-name="Layer 1" xmlns="http://www.w3.org/2000/svg" viewBox="0 0 600 261"><defs><style>.cls-1{fill:#fff;}.cls-2{fill:none;stroke:#000;stroke-miterlimit:10;stroke-width:0.8px;}</style></defs><path class="cls-1" d="M270.4,57.62l-36.5,87.31-48-117.66H112.79l85.15,201.37h34.48L316,27.27h0A49.42,49.42,0,0,0,270.4,57.62Z"/><line class="cls-1" x1="315.98" y1="27.27" x2="315.98" y2="27.27"/><circle class="cls-1" cx="319.76" cy="133.66" r="19.71"/><path class="cls-2" d="M318.73,148.82s12.75,2.39,15.93-9.55"/><path class="cls-1" d="M310.82,92.4Q323.72,80.58,342.1,82q28.84,2.16,36.78,34.61l10.46.09L414,56.21q-25.8-27.93-66.21-31l-1.28-.07H330.9A103.82,103.82,0,0,0,316,27.27l-63.89,154a105.13,105.13,0,0,0,9.06,12.14q26.88,31.11,70,34.34c4.36.33,8.61.42,12.75.32l39.16-96-3.46-.35q-3.53,20.2-15.15,30.28t-29.87,8.7q-18-1.35-28.76-14.6t-9.38-32.2Q297.91,104.23,310.82,92.4Z"/></svg>